<?xml version="1.0" encoding="UTF-8"?>
<svg id="Layer_1" xmlns="http://www.w3.org/2000/svg" version="1.1" viewBox="0 0 846 882">
  <!-- Generator: Adobe Illustrator 30.2.1, SVG Export Plug-In . SVG Version: 2.1.1 Build 1)  -->
  <path d="M779.48,420.85l-134.66-19.23v-157.35s17.4-.16,17.4-.16c2.29-.24,5.15-2.64,5.15-5.1l.04-28.4c-1.52-26.06-22.27-49.42-49.4-49.5l-112.13-.32.03-118.89c0-12.61-9.44-22.01-21.91-22.26l-122.93.04c-10.73.5-21.34,8.28-21.36,19.87l-.14,121.21-113.47.34c-27.33.08-48.19,23.38-49.89,49.67l-.07,28.01c0,2.72,3.13,5.3,5.67,5.27l17.35.27.02,157.52-139.48,20.65c-31.26,4.63-49.47,34.76-46.02,65.52,7.39,68.64,29.45,134.91,64.91,194.18,22.49,37.59,50.94,70.71,85.35,97.75,75.48,59.31,174.38,83.35,269.13,82.39,43.33-.43,85.42-5.52,127.65-17.43,55.72-15.73,104.71-44.7,145.25-85.26,72.92-72.93,115.85-170.51,126.32-272.52,4.02-34.48-19.39-61.5-52.81-66.27ZM150.82,588.83c-29.26,0-52.99-23.72-52.99-52.98s23.73-52.98,52.99-52.98,52.98,23.72,52.98,52.98-23.72,52.98-52.98,52.98ZM262.91,263.79c.01-10.84,9.51-19.62,20.35-19.62h276.43c10.32,0,20.31,8.08,20.33,18.66l.24,106.97c.02,10.48-7.09,20.74-19.21,20.5-70.1-1.44-138.83-2.22-208.48-1.11l-71.3,1.15c-9.86.15-18.48-8.79-18.47-18.53l.11-108.02ZM587.24,686.11c-21.88,27.07-50.48,46.72-83.73,58.13-90.67,31.11-211.44,8.49-259.93-81.01-4.81-8.88-15.99-32.43-4.25-38.93,4.73-2.62,10.4-2.1,15.39.05,31.63,13.61,63.86,23.43,98.09,28.73,41.53,6.42,82.71,7.02,124.46,2.12,40.29-4.74,78.45-15.66,115.52-31.5,5.28-2.25,12.2-1.66,15.97,2.37,11.53,12.34-12.44,48.81-21.52,60.04ZM691.87,588.8c-29.25,0-52.97-23.71-52.97-52.96s23.72-52.97,52.97-52.97,52.97,23.71,52.97,52.97-23.72,52.96-52.97,52.96Z"/>
</svg>