<?xml version="1.0" encoding="UTF-8"?> <svg xmlns="http://www.w3.org/2000/svg" width="85" height="50" viewBox="0 0 85 50" fill="none"><g clip-path="url(#clip0_7795_1441)"><path d="M18.5569 12.5018H32.7745L30.621 20.7518C30.3243 21.853 29.6715 22.8186 28.7729 23.5216C27.8742 24.2162 26.7636 24.5804 25.6275 24.5634H19.0317C17.582 24.5465 16.1746 25.0124 15.0301 25.8933C13.8517 26.7996 13.0039 28.0617 12.5969 29.4847C12.3087 30.535 12.2748 31.6361 12.5037 32.6949C12.7241 33.669 13.1395 34.5838 13.733 35.38C14.3349 36.1762 15.1149 36.8199 16.0051 37.2688C16.9461 37.7347 17.9804 37.9719 19.0317 37.9634H23.0248C23.7454 37.9549 24.4237 38.2853 24.8476 38.8613C25.3138 39.4203 25.4665 40.1741 25.2545 40.8687L22.7705 49.9742H18.3789C15.4964 50.0081 12.6563 49.339 10.0959 48.0261C7.63731 46.7725 5.49239 44.9937 3.80527 42.8084C0.329311 38.2768 -0.849125 32.3984 0.617562 26.8758L0.854944 25.9356C1.38906 23.9621 2.24533 22.0901 3.39833 20.4045C4.50894 18.7528 5.88237 17.2959 7.46775 16.0932C9.06161 14.8904 10.8335 13.9502 12.7241 13.3149C14.6316 12.6542 16.6409 12.3154 18.6587 12.3154" fill="#FF6C2C"></path><path d="M25.8203 49.9748L38.1557 3.87116C38.4609 2.75308 39.1138 1.77053 40.0294 1.05903C40.945 0.347523 42.081 -0.025169 43.2425 0.000241847H56.3834C59.2489 -0.025169 62.0721 0.643982 64.6154 1.95687C69.5496 4.48101 73.0934 9.08037 74.2718 14.4929C74.8992 17.2965 74.8144 20.2018 74.026 22.9631L73.7801 23.8949C73.2545 25.843 72.4152 27.698 71.2961 29.3836C70.2024 31.0353 68.8459 32.4922 67.286 33.7034C64.0898 36.1683 60.1645 37.4981 56.129 37.4897H44.7685L46.9898 29.1803C47.295 28.0961 47.9393 27.1475 48.838 26.4698C49.7282 25.7668 50.8388 25.3941 51.9748 25.4111H55.5356C56.8581 25.428 58.1552 25.0553 59.2659 24.3353C60.6647 23.4375 61.6651 22.0399 62.0636 20.4305C62.3603 19.431 62.3942 18.3638 62.1568 17.3474C61.9449 16.3733 61.5295 15.4585 60.9275 14.6707C60.3256 13.8745 59.5456 13.2223 58.6554 12.7734C57.7229 12.2906 56.6801 12.045 55.6288 12.0534H48.6854L39.5122 46.1632C39.1985 47.2643 38.5373 48.2384 37.6216 48.933C36.7314 49.636 35.6208 50.0087 34.4848 50.0002L25.8203 49.9748Z" fill="#FF6C2C"></path><path d="M75.5025 6.8948H74.6378V0.863967H72.4844V0H77.6644V0.863967H75.5025V6.8948Z" fill="#FF6C2C"></path><path d="M81.4006 6.8948L79.1031 0.847027C79.1285 1.40606 79.2387 1.9651 79.4337 2.49026V6.87786H78.5859V0H79.705L81.7736 5.59885L83.8677 0H85.0038V6.8948H84.156V2.44791C84.2407 1.95663 84.2662 1.42301 84.3086 0.863967L82.0365 6.8948H81.4006Z" fill="#FF6C2C"></path></g><defs><clipPath id="clip0_7795_1441"><rect width="85" height="50" fill="white"></rect></clipPath></defs></svg> 